<svg width="904" height="749" viewBox="0 0 904 749" fill="none" xmlns="http://www.w3.org/2000/svg">
<g id="hello 1" clip-path="url(#clip0)">
<g id="smoke">
<path id="Vector" d="M792.308 239.481C791.883 239.494 791.466 239.601 791.086 239.794C790.706 239.987 790.374 240.261 790.112 240.596C789.459 241.779 790.642 243.112 791.721 243.925C793.714 245.427 795.815 246.901 797.17 248.997C798.524 251.093 798.95 254.017 797.469 256.026C795.535 258.648 790.921 259.212 790.475 262.44C790.188 264.512 791.98 266.28 793.795 267.32C798.275 269.887 804.051 270.571 807.296 274.587C808.638 271.827 811.641 270.231 814.634 269.549C817.627 268.868 820.737 268.919 823.772 268.457C824.267 268.447 824.754 268.321 825.192 268.089C825.63 267.856 826.007 267.524 826.293 267.119C827.141 265.398 824.723 263.333 825.558 261.605C826.193 260.289 828.059 260.391 829.421 259.864C831.64 259.007 832.554 256.152 831.925 253.858C831.295 251.564 829.517 249.772 827.646 248.302C822.606 244.342 816.545 242.012 810.416 240.337C807.565 239.558 804.218 238.336 801.257 238.218C798.398 238.104 795.138 238.997 792.308 239.481Z" fill="#EEEEEE"/>
</g>
<g id="arm">
<path id="Vector_2" d="M374.209 264.016L429.156 322.345C430.313 323.573 431.744 324.511 433.331 325.083C434.918 325.655 436.618 325.845 438.293 325.637C439.967 325.429 441.569 324.829 442.969 323.886C444.368 322.943 445.525 321.684 446.347 320.21L507.209 211.016L490.209 205.016L440.209 277.016C440.209 277.016 346.342 179.179 333.209 184.016C320.076 188.853 374.209 264.016 374.209 264.016Z" fill="#6C63FF"/>
</g>
<g id="hand">
<path id="Vector_3" d="M490.209 205.016C490.209 205.016 503.209 166.016 512.209 177.016C521.209 188.016 507.209 211.016 507.209 211.016L490.209 205.016Z" fill="#FDA57D"/>
</g>
<g id="man">
<path id="Vector_4" d="M137.273 601.895C137.273 647.134 110.378 662.931 77.205 662.931C76.4326 662.931 75.6644 662.923 74.9005 662.902C73.3641 662.869 71.8403 662.802 70.3373 662.693C40.3952 660.577 17.1329 643.965 17.1329 601.895C17.1329 558.359 72.7587 503.422 76.9545 499.343L76.9628 499.339C77.1215 499.181 77.205 499.101 77.205 499.101C77.205 499.101 137.273 556.652 137.273 601.895Z" fill="#3F3D56"/>
<path id="Vector_5" d="M75.0132 656.009L96.9855 625.312L74.9589 659.378L74.9005 662.902C73.3641 662.869 71.8403 662.802 70.3373 662.693L72.7045 617.434L72.6877 617.083L72.7295 617.016L72.9508 612.741L50.8699 578.586L73.0176 609.535L73.0719 610.441L74.8629 576.244L55.9591 540.954L75.0925 570.237L76.9545 499.343L76.9628 499.101V499.339L76.6538 555.245L95.4699 533.081L76.5745 560.059L76.0777 590.677L93.6497 561.294L76.0026 595.186L75.7271 612.207L101.236 571.306L75.6311 618.148L75.0132 656.009Z" fill="#F2F2F2"/>
<g id="Group" opacity="0.7">
<path id="Vector_6" opacity="0.7" d="M833.984 284.805V273.91H779.509V324.3C779.509 327.117 780.628 329.819 782.62 331.811C784.612 333.803 787.314 334.922 790.132 334.922H823.362C826.179 334.922 828.881 333.803 830.873 331.811C832.865 329.819 833.984 327.117 833.984 324.3V313.132C837.741 313.132 841.343 311.64 844 308.984C846.656 306.328 848.148 302.725 848.148 298.969C848.148 295.212 846.656 291.61 844 288.953C841.343 286.297 837.741 284.805 833.984 284.805V284.805ZM833.984 307.685V290.253C836.296 290.253 838.513 291.171 840.148 292.805C841.782 294.44 842.7 296.657 842.7 298.969C842.7 301.28 841.782 303.497 840.148 305.132C838.513 306.766 836.296 307.685 833.984 307.685V307.685Z" fill="url(#paint0_linear)"/>
</g>
<path id="Vector_7" d="M832.232 286.51C829.674 286.51 827.174 287.269 825.047 288.69C822.92 290.111 821.263 292.13 820.284 294.493C819.305 296.856 819.049 299.457 819.548 301.965C820.047 304.474 821.279 306.778 823.087 308.587C824.896 310.395 827.2 311.627 829.709 312.126C832.217 312.625 834.818 312.369 837.181 311.39C839.544 310.411 841.563 308.754 842.984 306.627C844.405 304.5 845.164 302 845.164 299.442C845.164 296.012 843.801 292.723 841.376 290.298C838.951 287.873 835.661 286.51 832.232 286.51V286.51ZM832.232 307.4C830.658 307.4 829.119 306.934 827.81 306.059C826.502 305.185 825.482 303.942 824.879 302.488C824.277 301.034 824.119 299.433 824.426 297.89C824.733 296.346 825.491 294.928 826.604 293.815C827.717 292.702 829.135 291.944 830.679 291.637C832.223 291.33 833.823 291.488 835.277 292.09C836.731 292.692 837.974 293.712 838.849 295.021C839.723 296.33 840.19 297.868 840.19 299.442C840.19 301.553 839.351 303.577 837.859 305.07C836.367 306.562 834.342 307.4 832.232 307.4Z" fill="#6C63FF"/>
<path id="Vector_8" opacity="0.1" d="M832.232 286.51C829.674 286.51 827.174 287.269 825.047 288.69C822.92 290.111 821.263 292.13 820.284 294.493C819.305 296.856 819.049 299.457 819.548 301.965C820.047 304.474 821.279 306.778 823.087 308.587C824.896 310.395 827.2 311.627 829.709 312.126C832.217 312.625 834.818 312.369 837.181 311.39C839.544 310.411 841.563 308.754 842.984 306.627C844.405 304.5 845.164 302 845.164 299.442C845.164 296.012 843.801 292.723 841.376 290.298C838.951 287.873 835.661 286.51 832.232 286.51V286.51ZM832.232 307.4C830.658 307.4 829.119 306.934 827.81 306.059C826.502 305.185 825.482 303.942 824.879 302.488C824.277 301.034 824.119 299.433 824.426 297.89C824.733 296.346 825.491 294.928 826.604 293.815C827.717 292.702 829.135 291.944 830.679 291.637C832.223 291.33 833.823 291.488 835.277 292.09C836.731 292.692 837.974 293.712 838.849 295.021C839.723 296.33 840.19 297.868 840.19 299.442C840.19 301.553 839.351 303.577 837.859 305.07C836.367 306.562 834.342 307.4 832.232 307.4Z" fill="black"/>
<path id="Vector_9" d="M782.493 276.563H832.232V322.52C832.232 325.106 831.204 327.586 829.376 329.414C827.547 331.242 825.068 332.27 822.482 332.27H792.243C789.657 332.27 787.177 331.242 785.349 329.414C783.52 327.586 782.493 325.106 782.493 322.52V276.563Z" fill="#6C63FF"/>
<path id="Vector_10" opacity="0.1" d="M823.279 276.563V322.571C823.279 325.143 822.257 327.61 820.438 329.429C818.619 331.248 816.152 332.27 813.58 332.27H818.554C821.126 332.27 823.593 331.248 825.412 329.429C827.231 327.61 828.253 325.143 828.253 322.571V276.563H823.279Z" fill="black"/>
<path id="Vector_11" d="M443.209 344.016L339.209 668.016" stroke="#E0E0E0" stroke-width="8" stroke-miterlimit="10"/>
<g id="Group_2" opacity="0.7">
<path id="Vector_12" opacity="0.7" d="M523.788 704.506C510.995 705.248 499.599 715.965 499.599 715.965L494.088 702.295L493.638 702.441C496.33 690.657 551.104 447.722 496.272 426.779C454.139 410.686 409.448 390.771 374.434 391.519V334.129H423.523V332.084H462.385C469.834 326.763 459.01 323.104 446.911 320.817C447.404 320.253 447.839 319.64 448.208 318.988L510.451 207.317C510.451 207.317 524.768 183.795 515.564 172.546C506.36 161.296 493.065 201.181 493.065 201.181L441.931 274.814C441.931 274.814 390.322 221.023 357.492 194.273C353.849 190.662 349.738 187.556 345.27 185.036C339.277 180.981 334.741 178.881 332.504 179.704C332.481 179.713 332.463 179.727 332.44 179.736C327.465 178.358 322.326 177.66 317.164 177.659H313.073V169.268C322.237 166.242 330.62 161.231 337.625 154.593C344.63 147.956 350.084 139.854 353.6 130.867C359.369 121.312 362.892 110.571 363.904 99.4548C364.916 88.3389 363.389 77.1384 359.439 66.6987C360.05 66.6266 360.637 66.4232 361.162 66.1025C363.014 64.9102 363.197 62.302 363.018 60.1066C362.347 52.7381 359.89 45.6441 355.861 39.438C351.832 33.232 346.353 28.1007 339.896 24.4877C334.714 21.6544 328.78 19.7022 324.959 15.1992C321.676 11.3299 320.296 5.91822 316.323 2.76113C311.604 -0.989543 304.785 -0.344755 298.994 1.32885C292.549 3.19365 286.443 6.07507 280.906 9.86441C274.641 14.1551 268.987 19.6675 261.775 22.0425C256.65 23.73 251.093 23.6963 245.935 25.2817C241.978 26.5358 238.368 28.6987 235.396 31.5975C232.424 34.4963 230.171 38.0505 228.819 41.9757C227.506 46.1926 227.009 50.6211 227.354 55.024C224.218 60.2664 221.75 65.8806 220.008 71.7358C219.623 71.9443 219.235 72.1482 218.852 72.3631L219.974 71.8589C216.062 85.0623 215.932 99.0982 219.599 112.372C223.265 125.645 230.581 137.624 240.716 146.948C248.724 157.373 259.682 165.15 272.166 169.268V179.419C263.259 181.34 254.762 184.82 247.066 189.699L247.055 189.686C247.055 189.686 246.402 190.089 245.285 190.841C245.173 190.916 245.061 190.992 244.95 191.067C237.382 196.203 212.024 214.971 212.88 235.25C212.847 236.03 212.852 236.812 212.894 237.596C211.509 243.457 210.808 249.458 210.805 255.48V402.649C210.785 418.911 216.25 434.704 226.316 447.475C204.975 452.259 191.374 459.493 191.374 467.589C191.481 468.267 191.481 468.957 191.374 469.635C191.374 484.037 234.414 495.713 287.506 495.713C293.925 495.713 300.196 495.541 306.263 495.215L366.253 543.779L270.121 698.204C270.121 698.204 238.417 722.749 262.962 730.93C287.506 739.112 337.617 745.248 337.617 745.248C337.617 745.248 345.799 730.93 334.549 724.794C323.3 718.658 307.96 721.726 307.96 721.726L310.005 709.454C310.005 709.454 476.702 566.278 441.931 517.19C435.279 507.798 428.627 498.108 421.917 488.569L448.159 490.961L454.13 715.718L454.877 715.474C453.378 719.89 442.776 753.214 466.276 747.575C491.434 741.538 537.209 720.243 537.209 720.243C537.209 720.243 536.581 703.765 523.788 704.506ZM423.523 317.766L374.434 303.515V261.519L427.788 318.156C425.165 317.893 423.523 317.766 423.523 317.766Z" fill="url(#paint1_linear)"/>
</g>
<path id="Vector_13" d="M292.209 171.016C331.974 171.016 364.209 138.781 364.209 99.0161C364.209 59.2516 331.974 27.0161 292.209 27.0161C252.445 27.0161 220.209 59.2516 220.209 99.0161C220.209 138.781 252.445 171.016 292.209 171.016Z" fill="black"/>
<path id="Vector_14" d="M269.209 466.016L188.209 676.016" stroke="#BDBDBD" stroke-width="5" stroke-miterlimit="10"/>
<path id="Vector_15" d="M309.209 466.016L390.209 676.016" stroke="#BDBDBD" stroke-width="5" stroke-miterlimit="10"/>
<path id="Vector_16" d="M289.209 493.016C341.124 493.016 383.209 481.599 383.209 467.516C383.209 453.433 341.124 442.016 289.209 442.016C237.294 442.016 195.209 453.433 195.209 467.516C195.209 481.599 237.294 493.016 289.209 493.016Z" fill="#B84733"/>
<path id="Vector_17" d="M289.209 491.016C341.124 491.016 383.209 479.599 383.209 465.516C383.209 451.433 341.124 440.016 289.209 440.016C237.294 440.016 195.209 451.433 195.209 465.516C195.209 479.599 237.294 491.016 289.209 491.016Z" fill="#F55F44"/>
<path id="Vector_18" d="M249.655 512.154L338.345 539.484" stroke="#BDBDBD" stroke-width="5" stroke-miterlimit="10"/>
<path id="Vector_19" d="M328.763 512.154L240.073 539.484" stroke="#BDBDBD" stroke-width="5" stroke-miterlimit="10"/>
<path id="Vector_20" d="M290.304 182.016H318.209C333.061 182.016 347.305 187.916 357.807 198.418C368.309 208.92 374.209 223.164 374.209 238.016V386.016H214.209V258.111C214.209 237.929 222.226 218.574 236.497 204.304C250.767 190.033 270.122 182.016 290.304 182.016V182.016Z" fill="#6C63FF"/>
<path id="Vector_21" d="M214.209 386.016H374.209V473.016H285.209C266.379 473.016 248.32 465.536 235.005 452.221C221.689 438.906 214.209 420.846 214.209 402.016V386.016V386.016Z" fill="#39447A"/>
<path id="Vector_22" opacity="0.05" d="M216.37 242.055L314.209 335.016H422.209V321.016L329.209 294.016L249.655 195.776C249.655 195.776 213.531 218.095 216.37 242.055Z" fill="black"/>
<path id="Vector_23" d="M216.37 240.055L314.209 333.016H422.209V319.016L329.209 292.016L249.655 193.776C249.655 193.776 213.531 216.095 216.37 240.055Z" fill="#6C63FF"/>
<path id="Vector_24" d="M422.209 319.016C422.209 319.016 474.209 323.016 460.209 333.016H422.209V319.016Z" fill="#FDA57D"/>
<path id="Vector_25" opacity="0.05" d="M214.209 386.016V390.683L374.209 391.016V386.016H214.209Z" fill="black"/>
<path id="Vector_26" d="M338.671 478.56L446.299 488.369L452.138 708.141L490.669 695.597C490.669 695.597 548.295 446.599 493.345 425.61C438.395 404.622 378.997 376.985 343.533 399.508C308.069 422.032 338.671 478.56 338.671 478.56Z" fill="#39447A"/>
<path id="Vector_27" opacity="0.1" d="M345.209 411.016C345.209 411.016 404.209 441.016 412.209 475.016Z" fill="black"/>
<path id="Vector_28" d="M282.21 472.016L366.209 540.016L272.209 691.016L311.209 702.016C311.209 702.016 474.209 562.016 440.209 514.016C406.209 466.016 372.209 410.016 330.209 409.016C288.209 408.016 282.21 472.016 282.21 472.016Z" fill="#39447A"/>
<path id="Vector_29" opacity="0.05" d="M414.209 251.016L435.209 287.016L440.209 277.016L414.209 251.016Z" fill="black"/>
<path id="Vector_30" d="M272.209 691.016C272.209 691.016 241.209 715.016 265.209 723.016C289.209 731.016 338.209 737.016 338.209 737.016C338.209 737.016 346.209 723.016 335.209 717.016C324.209 711.016 309.209 714.016 309.209 714.016L311.209 702.016L272.209 691.016Z" fill="#333333"/>
<path id="Vector_31" d="M453.032 707.431C453.032 707.431 439.415 745.195 464.014 739.291C488.614 733.388 533.374 712.566 533.374 712.566C533.374 712.566 532.759 696.453 520.25 697.179C507.742 697.904 496.598 708.383 496.598 708.383L491.209 695.016L453.032 707.431Z" fill="#333333"/>
<path id="Vector_32" d="M294.209 147.016H294.209C283.163 147.016 274.209 155.97 274.209 167.016V187.016C274.209 198.062 283.163 207.016 294.209 207.016H294.209C305.255 207.016 314.209 198.062 314.209 187.016V167.016C314.209 155.97 305.255 147.016 294.209 147.016Z" fill="#FDA57D"/>
<path id="Vector_33" opacity="0.05" d="M294.209 149.016C288.905 149.016 283.818 151.123 280.067 154.874C276.316 158.625 274.209 163.712 274.209 169.016V175.811C287.2 180.084 301.218 180.084 314.209 175.811V169.016C314.209 163.712 312.102 158.625 308.351 154.874C304.601 151.123 299.513 149.016 294.209 149.016Z" fill="black"/>
<path id="Vector_34" d="M294.209 177.016C329.555 177.016 358.209 148.362 358.209 113.016C358.209 77.6699 329.555 49.0161 294.209 49.0161C258.863 49.0161 230.209 77.6699 230.209 113.016C230.209 148.362 258.863 177.016 294.209 177.016Z" fill="#FDA57D"/>
<path id="Vector_35" opacity="0.05" d="M230.209 110.112C230.209 110.112 246.209 114.235 255.209 96.0504C264.209 77.8655 271.209 67.9465 308.209 78.6921C345.209 89.4377 352.652 90.7487 354.431 80.5875C355.646 73.644 342.489 56.7784 334.035 46.7931C329.911 41.9219 323.18 39.0161 315.987 39.0161H274.209L249.209 50.5883L230.209 67.12L226.209 89.4377L230.209 110.112Z" fill="black"/>
<path id="Vector_36" d="M230.209 108.112C230.209 108.112 246.209 112.235 255.209 94.0504C264.209 75.8655 271.209 65.9465 308.209 76.6921C345.209 87.4377 352.652 88.7487 354.431 78.5875C355.646 71.644 342.489 54.7784 334.035 44.7931C329.911 39.9219 323.18 37.0161 315.987 37.0161H274.209L249.209 48.5883L230.209 65.12L226.209 87.4377L230.209 108.112Z" fill="black"/>
<path id="Vector_37" d="M236.709 121.016C240.299 121.016 243.209 115.196 243.209 108.016C243.209 100.836 240.299 95.0161 236.709 95.0161C233.119 95.0161 230.209 100.836 230.209 108.016C230.209 115.196 233.119 121.016 236.709 121.016Z" fill="#FDA57D"/>
<path id="Vector_38" d="M232.063 74.5653C230.58 66.194 229.123 57.4035 231.823 49.3421C233.146 45.5039 235.349 42.0286 238.255 39.1941C241.161 36.3596 244.69 34.2446 248.56 33.0183C253.603 31.4681 259.038 31.5011 264.049 29.851C271.101 27.5286 276.629 22.1386 282.755 17.943C288.169 14.2376 294.14 11.4201 300.442 9.5967C306.105 7.96019 312.772 7.32969 317.387 10.9972C321.272 14.0843 322.621 19.3759 325.831 23.1594C329.567 27.5626 335.37 29.4714 340.437 32.242C346.75 35.7748 352.109 40.7923 356.048 46.8606C359.988 52.929 362.39 59.8656 363.047 67.0707C363.221 69.2175 363.042 71.7679 361.231 72.9337C360.106 73.5059 358.839 73.7373 357.584 73.5994C332.005 73.2338 306.396 72.8667 280.923 70.5186C273.004 69.7886 265.069 68.8664 257.122 69.1675C244.824 69.647 232.814 73.0356 222.078 79.0555" fill="black"/>
<path id="Vector_39" d="M121.301 645.267H32.7841C14.6779 645.267 0 659.945 0 678.051V678.051C0 696.157 14.6779 710.835 32.7841 710.835H121.301C139.408 710.835 154.085 696.157 154.085 678.051C154.085 659.945 139.408 645.267 121.301 645.267Z" fill="#6C63FF"/>
<path id="Vector_40" d="M575.876 411.183C576.265 411.169 576.633 411.005 576.903 410.725C577.174 410.446 577.325 410.072 577.325 409.683C577.325 409.294 577.174 408.92 576.903 408.64C576.633 408.36 576.265 408.196 575.876 408.183C575.487 408.196 575.119 408.36 574.848 408.64C574.578 408.92 574.427 409.294 574.427 409.683C574.427 410.072 574.578 410.446 574.848 410.725C575.119 411.005 575.487 411.169 575.876 411.183Z" fill="url(#paint2_linear)"/>
<path id="Vector_41" d="M795.971 344.016L899.971 714.108" stroke="#E0E0E0" stroke-width="8" stroke-miterlimit="10"/>
<path id="Vector_42" d="M900.393 333.178H338.787V355.063H900.393V333.178Z" fill="#E0E0E0"/>
<path id="Vector_43" d="M562.709 328.016H483.709C480.119 328.016 477.209 330.926 477.209 334.516V334.516C477.209 338.106 480.119 341.016 483.709 341.016H562.709C566.299 341.016 569.209 338.106 569.209 334.516C569.209 330.926 566.299 328.016 562.709 328.016Z" fill="#535461"/>
<g id="Group_3" opacity="0.7">
<path id="Vector_44" opacity="0.7" d="M733.649 183.077H561.429C545.843 183.077 533.209 195.711 533.209 211.297V312.959C533.209 328.544 545.843 341.178 561.429 341.178H733.649C749.234 341.178 761.869 328.544 761.869 312.959V211.297C761.869 195.711 749.234 183.077 733.649 183.077Z" fill="url(#paint3_linear)"/>
</g>
<path id="Vector_45" d="M727.06 185.994H564.121C549.3 185.994 537.286 198.008 537.286 212.829V314.343C537.286 329.164 549.3 341.178 564.121 341.178H727.06C741.88 341.178 753.895 329.164 753.895 314.343V212.829C753.895 198.008 741.88 185.994 727.06 185.994Z" fill="#3E3F49"/>
<path id="Vector_46" d="M730.06 185.994H567.121C552.3 185.994 540.286 198.008 540.286 212.829V314.343C540.286 329.164 552.3 341.178 567.121 341.178H730.06C744.88 341.178 756.895 329.164 756.895 314.343V212.829C756.895 198.008 744.88 185.994 730.06 185.994Z" fill="#535461"/>
<path id="Vector_47" d="M658.709 269.516C662.575 269.516 665.709 266.382 665.709 262.516C665.709 258.65 662.575 255.516 658.709 255.516C654.843 255.516 651.709 258.65 651.709 262.516C651.709 266.382 654.843 269.516 658.709 269.516Z" fill="#E0E0E0"/>
</g>
</g>
<defs>
<linearGradient id="paint0_linear" x1="813.828" y1="334.922" x2="813.828" y2="273.91" gradientUnits="userSpaceOnUse">
<stop stop-color="#808080" stop-opacity="0.25"/>
<stop offset="0.53514" stop-color="#808080" stop-opacity="0.12"/>
<stop offset="1" stop-color="#808080" stop-opacity="0.1"/>
</linearGradient>
<linearGradient id="paint1_linear" x1="177983" y1="616610" x2="177983" y2="56783.9" gradientUnits="userSpaceOnUse">
<stop stop-color="#808080" stop-opacity="0.25"/>
<stop offset="0.53514" stop-color="#808080" stop-opacity="0.12"/>
<stop offset="1" stop-color="#808080" stop-opacity="0.1"/>
</linearGradient>
<linearGradient id="paint2_linear" x1="2677.36" y1="1869.41" x2="2677.36" y2="1860.41" gradientUnits="userSpaceOnUse">
<stop stop-color="#808080" stop-opacity="0.25"/>
<stop offset="0.53514" stop-color="#808080" stop-opacity="0.12"/>
<stop offset="1" stop-color="#808080" stop-opacity="0.1"/>
</linearGradient>
<linearGradient id="paint3_linear" x1="148599" y1="54123.8" x2="148599" y2="29127.8" gradientUnits="userSpaceOnUse">
<stop stop-color="#808080" stop-opacity="0.25"/>
<stop offset="0.53514" stop-color="#808080" stop-opacity="0.12"/>
<stop offset="1" stop-color="#808080" stop-opacity="0.1"/>
</linearGradient>
<clipPath id="clip0">
<rect width="903.822" height="748.215" fill="white"/>
</clipPath>
</defs>
</svg>
